<?xml version="1.0" standalone="no"?>
<!DOCTYPE svg PUBLIC "-//W3C//DTD SVG 20010904//EN"
 "http://www.w3.org/TR/2001/REC-SVG-20010904/DTD/svg10.dtd">
<svg version="1.0" xmlns="http://www.w3.org/2000/svg"
 width="500.000000pt" height="500.000000pt" viewBox="0 0 500.000000 500.000000"
 preserveAspectRatio="xMidYMid meet">

<g transform="translate(0.000000,500.000000) scale(0.100000,-0.100000)"
fill="#000000" stroke="none">
<path d="M2225 4343 c-101 -10 -302 -47 -423 -78 -426 -112 -851 -342 -1142
-619 -61 -57 -54 -35 -97 -291 -23 -141 -29 -549 -9 -710 75 -615 333 -1163
762 -1615 60 -63 97 -105 82 -92 -25 22 -27 23 -56 8 -20 -10 -57 -16 -101
-16 -53 0 -84 -6 -127 -25 -33 -15 -76 -25 -103 -25 -25 0 -65 -9 -88 -20 -37
-16 -187 -38 -233 -33 -8 1 26 -38 76 -85 220 -210 501 -370 797 -456 156 -45
259 -59 442 -60 183 0 278 13 426 60 l79 25 78 -25 c238 -75 502 -84 767 -25
329 73 687 270 918 506 l58 60 -55 2 c-81 3 -160 17 -195 35 -16 9 -53 16 -81
16 -34 0 -67 8 -100 25 -39 20 -64 25 -122 25 -46 0 -84 6 -102 15 -26 14 -31
14 -50 -2 -11 -10 26 32 82 92 416 450 655 943 749 1545 14 89 18 174 18 375
-1 265 -12 387 -52 573 -15 69 -20 76 -76 128 -391 362 -937 609 -1500 679
-112 14 -505 19 -622 8z m605 -143 c152 -32 267 -72 416 -145 176 -85 283
-163 440 -320 199 -199 310 -379 405 -660 24 -68 31 -107 31 -160 -1 -70 -8
-137 -19 -165 -3 -8 -8 -37 -10 -65 -2 -27 -8 -51 -13 -53 -6 -2 -10 -17 -10
-34 0 -38 -20 -108 -32 -108 -4 0 -8 -7 -8 -15 0 -9 -9 -35 -20 -57 -11 -23
-20 -54 -20 -70 0 -17 -5 -28 -14 -28 -16 0 -46 -42 -46 -65 0 -8 -4 -15 -9
-15 -5 0 -12 -13 -16 -29 -3 -16 -17 -37 -30 -45 -13 -9 -32 -33 -42 -53 -18
-40 -29 -54 -78 -108 -16 -19 -39 -46 -50 -61 -41 -57 -78 -94 -99 -100 -11
-3 -34 -23 -49 -45 -16 -21 -33 -39 -39 -39 -6 0 -36 -22 -68 -50 -32 -28 -68
-50 -80 -50 -12 0 -36 -10 -53 -22 -17 -12 -37 -23 -45 -24 -7 -2 -25 -11 -40
-21 -58 -39 -156 -83 -186 -83 -17 -1 -56 -12 -86 -25 -30 -13 -56 -19 -58
-14 -2 5 -12 9 -22 9 -11 0 -41 13 -67 30 -26 16 -55 30 -64 30 -10 0 -19 4
-21 8 -4 11 -87 48 -125 57 l-33 7 0 148 c0 100 4 151 11 156 8 5 8 9 -2 14
-11 7 -13 34 -8 147 11 224 12 514 3 523 -9 8 -146 52 -148 48 -2 -3 14 -654
17 -707 2 -37 -1 -40 -77 -66 -65 -23 -105 -61 -112 -106 -8 -48 27 -88 108
-123 35 -15 72 -31 83 -36 11 -5 58 -23 104 -39 201 -73 275 -162 241 -292
-15 -57 -89 -130 -156 -154 -168 -59 -359 -182 -436 -279 -22 -28 -44 -52 -49
-54 -9 -4 -2 56 13 108 35 118 153 237 324 325 125 65 126 67 84 111 -45 46
-64 55 -201 100 -277 89 -369 173 -357 327 6 65 28 120 74 178 14 19 5 12 -20
-16 -25 -27 -46 -56 -46 -62 0 -7 -3 -13 -8 -13 -8 0 -23 -34 -43 -98 -10 -35
-11 -60 -1 -125 9 -64 9 -83 -1 -89 -9 -6 -9 -10 3 -18 12 -8 11 -10 -6 -10
-20 0 -90 33 -175 83 -25 15 -48 25 -51 22 -2 -3 -15 6 -28 20 -15 16 -34 25
-54 25 -24 0 -45 13 -86 50 -30 27 -60 50 -66 50 -6 0 -24 18 -39 39 -15 22
-40 44 -56 50 -16 5 -29 15 -29 21 0 6 -4 8 -10 5 -5 -3 -10 1 -10 10 0 8 -7
18 -15 21 -8 4 -15 12 -15 18 0 7 -24 39 -54 70 -30 32 -65 79 -78 105 -26 53
-36 64 -60 74 -10 3 -18 15 -18 26 0 11 -7 26 -15 35 -8 8 -15 24 -15 35 0 12
-4 21 -10 21 -5 0 -10 6 -10 14 0 7 -9 16 -20 19 -15 4 -20 14 -20 41 0 20 -4
36 -9 36 -5 0 -11 18 -15 40 -3 23 -13 43 -21 46 -8 4 -15 16 -15 28 0 12 -4
26 -9 32 -8 8 -12 29 -27 137 -3 23 -8 49 -11 57 -3 8 -7 35 -9 59 -2 24 -7
47 -12 50 -12 8 -7 105 8 161 19 70 109 300 138 350 90 157 202 300 326 417
84 80 244 203 264 203 6 0 12 4 14 8 5 13 243 126 315 151 95 32 219 62 313
77 132 20 419 12 550 -16z m-390 -2429 l0 -118 -48 23 c-55 26 -78 48 -87 86
-5 21 0 34 29 66 20 21 50 44 68 49 18 6 34 11 36 12 1 1 2 -52 2 -118z"/>
<path d="M2423 4089 c-50 -32 -67 -79 -59 -168 4 -42 9 -92 12 -111 l6 -35
-64 -3 c-64 -3 -144 -17 -186 -33 -13 -5 -34 -9 -47 -9 -14 0 -25 -4 -25 -10
0 -5 -9 -10 -20 -10 -11 0 -20 -4 -20 -10 0 -5 -9 -10 -19 -10 -11 0 -21 -4
-23 -8 -1 -4 -25 -23 -53 -42 -46 -32 -63 -49 -123 -117 -29 -34 -91 -163 -97
-203 -4 -24 0 -17 13 22 30 87 69 146 150 226 93 91 196 144 332 172 114 24
197 25 350 6 127 -17 201 -36 273 -72 26 -14 96 -40 156 -60 104 -33 112 -38
164 -93 30 -33 71 -93 93 -134 21 -42 40 -74 42 -72 7 7 -58 123 -102 182 -54
71 -86 93 -176 121 -36 11 -114 41 -173 66 -59 25 -116 46 -127 46 -10 0 -22
5 -25 10 -3 6 -15 10 -27 10 -19 0 -20 4 -14 53 20 158 19 204 -3 240 -40 65
-143 88 -208 46z"/>
<path d="M2375 3529 c-36 -6 -37 -6 -9 -8 19 0 34 -8 38 -17 3 -8 9 -146 13
-305 l6 -289 36 -10 c20 -5 57 -16 82 -23 l46 -14 7 301 c4 166 8 310 9 320 2
15 -8 22 -44 31 -62 16 -135 22 -184 14z"/>
<path d="M2134 3464 c-18 -14 -18 -15 4 -4 12 6 22 13 22 15 0 8 -5 6 -26 -11z"/>
<path d="M2089 3433 c-13 -16 -12 -17 4 -4 9 7 17 15 17 17 0 8 -8 3 -21 -13z"/>
<path d="M2750 3436 c0 -2 8 -10 18 -17 15 -13 16 -12 3 4 -13 16 -21 21 -21
13z"/>
<path d="M2048 3393 c-18 -21 -31 -43 -25 -43 2 0 13 14 25 30 25 33 24 41 0
13z"/>
<path d="M1693 3220 c0 -30 2 -43 4 -27 2 15 2 39 0 55 -2 15 -4 2 -4 -28z"/>
<path d="M2129 1983 c-13 -16 -12 -17 4 -4 9 7 17 15 17 17 0 8 -8 3 -21 -13z"/>
<path d="M2248 23 c6 -2 18 -2 25 0 6 3 1 5 -13 5 -14 0 -19 -2 -12 -5z"/>
<path d="M2738 23 c6 -2 18 -2 25 0 6 3 1 5 -13 5 -14 0 -19 -2 -12 -5z"/>
<path d="M2428 13 c39 -2 105 -2 145 0 39 1 7 3 -73 3 -80 0 -112 -2 -72 -3z"/>
</g>
</svg>
